# xmcd
#
# Track frame offsets: 
#        150
#        24671
#        49135
#        77460
#        98284
#        136931
#        168287
#        202508
#        232018
#        255649
#
# Disc length: 3732 seconds
#
# Revision: 1
# Processed by: cddbd v1.5.2PL0 Copyright (c) Steve Scherf et al.
# Submitted via: ExactAudioCopy v1.0b3
#
DISCID=6c0e920a
DTITLE=Fruteland Jackson - ... Is All I Crave
DYEAR=1996
DGENRE=Blues
TTITLE0=Cold Cold Woman
TTITLE1=Hair Parted In The Middle ... Is All I Crave (New Version)
TTITLE2=Down The Road Version (New Version)
TTITLE3=How's It Goin'
TTITLE4=All The Dady I Had
TTITLE5=Amazing Grace
TTITLE6=Ida B.
TTITLE7=Worksong - Fieldholler
TTITLE8=There's Gonna Be Some Changes Made
TTITLE9=Chicago Flood Song (1991)
EXTD=YEAR: 1996
EXTT0=
EXTT1=
EXTT2=
EXTT3=
EXTT4=
EXTT5=
EXTT6=
EXTT7=
EXTT8=
EXTT9=
PLAYORDER=
